<svg xmlns="http://www.w3.org/2000/svg" width="192" height="192" viewBox="0 0 192 192">
  <rect width="192" height="192" rx="40" fill="#6366f1"/>
  <path d="M96 48c-8 0-14.4 6.4-14.4 14.4 0 4.8 2.4 9.2 6.4 12v5.6h-8c-4.4 0-8 3.6-8 8v16h48v-16c0-4.4-3.6-8-8-8h-8v-5.6c4-2.8 6.4-7.2 6.4-12C118.4 54.4 104 48 96 48z" fill="none" stroke="white" stroke-width="4"/>
  <path d="M60 120h72v8c0 8.8-7.2 16-16 16H76c-8.8 0-16-7.2-16-16v-8z" fill="none" stroke="white" stroke-width="4"/>
  <circle cx="96" cy="96" r="6" fill="white"/>
  <path d="M96 96v24" stroke="white" stroke-width="4" stroke-linecap="round"/>
</svg>
